<svg id="Layer_1" data-name="Layer 1" xmlns="http://www.w3.org/2000/svg" viewBox="0 0 109.2 89.14"><defs><style>.cls-1{fill:#231f20;}</style></defs><rect class="cls-1" x="0.74" y="34.64" width="108.29" height="9.41"/><rect class="cls-1" x="0.74" y="0.15" width="108.29" height="9.41"/><path class="cls-1" d="M.74,66.39H3.28L11.58,82l8.3-15.59h2.53V88.75H19.88V71.86l-8.3,15.59L3.28,71.86V88.75H.74Z"/><path class="cls-1" d="M36.15,68.8v7.36H48.29v2.41H36.15v7.78H49.63v2.4H33.58V66.39H49.63V68.8Z"/><path class="cls-1" d="M60,66.39h2.54l13.86,18.2V66.39H79V88.75H76.41L62.55,70.56V88.75H60Z"/><path class="cls-1" d="M90.35,79.48V66.39h2.53V79.48c0,4.29,2.84,7.35,6.81,7.35s6.8-3.06,6.8-7.35V66.39H109V79.48c0,5.66-3.88,9.66-9.34,9.66S90.35,85.14,90.35,79.48Z"/></svg>